<svg xmlns="http://www.w3.org/2000/svg" xmlns:svg="http://www.w3.org/2000/svg" id="svg517" width="70" height="70" fill="#677285" version="1.1"><path id="path515" d="m 17.669865,53.268178 q -1.888439,0 -3.344111,-1.41633 -1.455671,-1.41633 -1.455671,-3.304769 V 21.715512 q 0,-1.022903 0.668822,-1.691726 0.668822,-0.66882 1.691726,-0.66882 1.022905,0 1.691726,0.66882 0.668823,0.668823 0.668823,1.691726 v 26.831567 h 33.283729 q 1.022905,0 1.691725,0.668823 0.668823,0.668823 0.668823,1.691725 0,1.022905 -0.668823,1.691728 -0.66882,0.668823 -1.691725,0.668823 z m 9.363506,-9.442195 q -1.888439,0 -3.304766,-1.416327 -1.416329,-1.416333 -1.416329,-3.304769 V 10.778308 q 0,-1.8884391 1.416329,-3.3047682 1.416327,-1.4163288 3.304766,-1.4163288 h 34.621375 q 1.888439,0 3.304769,1.4163288 1.416327,1.4163291 1.416327,3.3047682 v 28.326579 q 0,1.888436 -1.416327,3.304769 -1.41633,1.416327 -3.304769,1.416327 z m 0,-4.721096 H 61.654746 V 15.656774 H 27.033371 Z M 8.1489869,62.71037 q -1.8884387,0 -3.3047678,-1.416327 Q 3.4278903,59.87771 3.4278903,57.989271 V 31.157706 q 0,-1.022902 0.6688219,-1.691725 0.6688223,-0.66882 1.6917264,-0.66882 1.0229041,0 1.6917264,0.66882 0.6688219,0.668823 0.6688219,1.691725 V 57.989271 H 41.354029 q 1.022909,0 1.691729,0.668823 0.668822,0.668822 0.668822,1.691728 0,1.022902 -0.668822,1.691725 -0.66882,0.668823 -1.691729,0.668823 z" style="stroke-width:1.5737"/></svg>